<svg width="40" height="40" viewBox="0 0 40 40" fill="currentColor" xmlns="http://www.w3.org/2000/svg">
<path d="M1.95312 1.95312V9.30469C4.29609 9.3125 6.85625 9.25 9.00781 10.9687L9.21094 11.125L11.1406 20.6797L13.6172 8.85156L14.4766 9.41406C16.2891 10.5938 17.7109 10.1719 19.0703 9.39062L19.9609 8.875L21.1953 16.9922L22.7187 9.78906L24.0937 9.77344L25.4844 15.625L26.4766 6.85L27.5391 8.40625C28.1875 9.35156 28.6719 10.0547 29.1484 10.4922C29.5703 10.8828 29.9766 11.0938 30.625 11.1719C31.6719 10.5156 32.7969 9.55469 34.0937 8.82031C35.2344 8.16406 36.5703 7.70859 38.0469 7.89062V1.95312H1.95312ZM34.5781 28.4141C33.6406 29.2422 32.5859 30.4609 31.4766 31.6641C30.1875 33.0547 28.8438 34.4141 27.2656 34.9688L27.0156 35.0547L26.7656 34.9531C24.2266 33.9297 21.0703 34.0469 17.7344 34.4453L17.5391 34.4688L17.3594 34.3906C15.3203 33.4688 14.0078 32.5937 11.4766 31.7188C10.9297 32.6797 10.1953 33.5469 9.35156 34.125C8.85156 34.4687 8.30469 34.7187 7.72187 34.7891C7.13828 34.8672 6.51016 34.7344 5.99141 34.3594C5.17656 33.7734 4.36094 32.9531 3.55156 32.3594C2.96641 31.9375 2.43437 31.6719 1.95312 31.6016V38.0469H38.0469V35.1406C37.6484 34.1484 37.0938 32.7109 36.4219 31.3359C35.8594 30.1719 35.1875 29.0859 34.5781 28.4141Z" fill="currentColor"/>
</svg>
