<svg width="40" height="38" viewBox="0 0 40 38" fill="currentColor" xmlns="http://www.w3.org/2000/svg">
<path d="M6.535 2.69501C8.09833 1.16168 10.2033 0.236676 13.3133 0.396676C18.22 0.650009 20.5767 3.89001 20.5767 7.38501C20.5767 9.07001 19.6833 11.3233 18.45 12.9233C18.375 12.85 18.3117 12.7783 18.2333 12.705C17.9649 12.4586 17.6927 12.2163 17.4167 11.9783C16.61 11.2767 15.7 10.47 15.0883 9.60168C16.4333 7.24668 15.665 3.91168 12.8233 3.91168C11.16 3.91168 9.77333 5.37834 9.89167 7.32334C9.45833 8.24334 9.24667 9.57668 9.33 10.76C8.515 10.2683 7.82833 9.73001 7.505 8.98168L6.46167 6.57334L5.64 9.06001C5.44629 9.6709 5.3961 10.3182 5.49333 10.9517L5.47667 10.95C4.94769 10.1722 4.62903 9.27077 4.55167 8.33334C4.25167 5.15334 5.825 3.39334 6.535 2.69501ZM5.785 14.0683C5.975 13.345 4.48833 12.1133 3.935 11.8833C5.975 11.805 6.99 12.175 6.99 12.175C6.45667 11.4183 6.285 10.265 6.58667 9.35001C7.69833 11.915 11.6733 12.3267 12.6567 14.4533C12.5167 13.5367 11.615 12.505 10.5683 11.9033C10.0067 10.5067 10.4267 7.93168 11.1133 7.22334C10.8717 10.9233 16.3617 13.04 17.5 15.7317C16.8333 13.4267 14.2733 11.9683 13.06 10.5883C12.66 9.67168 12.9667 8.12168 13.4017 7.59001C13.2733 10.07 16.055 12.0033 17.54 13.39C19.2917 15.0217 19.7883 16.465 19.5517 17.645C19.935 17.7417 20.4633 18.1 20.3733 18.7083C20.9333 18.5833 21.5017 17.9667 21.64 17.5867C21.915 19.4267 20.79 21.375 19.53 21.955C19.53 21.955 19.8683 21.0767 19.295 20.405C18.7283 19.7417 17.12 19.7333 16.5767 19.7717C16.5767 19.7717 17.2433 18.8217 16.98 18.3383C16.6467 17.7433 13.5017 18.005 12.0967 18.495C12.575 18.445 13.7083 18.5683 14.105 18.7283C13.885 19.0433 13.3083 20.3767 13.7217 20.7767C14.105 21.1433 14.605 20.5067 14.605 20.5067C14.605 20.5067 14.115 21.965 14.4683 22.3033C14.8183 22.6417 15.5717 22.4017 15.5717 22.4017C15.1033 23.5467 13.2733 24.335 11.995 24.335C12.4517 24.195 13.2033 23.4133 13.32 22.9417C12.9867 23.1033 12.11 23.1967 11.7733 23.1367C12.1867 22.975 13.0167 21.95 12.76 20.795C12.3783 19.1133 9.94333 18.9 8.71833 19.7133C9.115 18.5833 10.3017 17.5267 11.23 17.18C10.622 16.9809 9.99962 16.8288 9.36833 16.725C10.1483 16.11 12.105 15.6083 13.1033 15.66C11.58 15.285 8.79333 15.755 7.51667 17.205C7.925 17.205 8.975 17.395 9.38 17.5217C7.63333 17.825 5.25 19.3917 4.55 20.1317C4.73333 19.1583 5.01667 18.3317 4.77667 17.7483C4.44 16.92 3.4 16.575 1.32667 16.9867C2.72667 15.6383 5.59167 14.8033 5.785 14.0683ZM15.325 15.3733C15.6017 16.3117 15.975 17.1733 17.1533 17.1733C17.1533 17.1733 16.74 15.875 15.325 15.3733ZM32.79 25.7117C33.6783 25.8583 34.9267 26.77 34.9267 28.0733C34.9267 30.1983 32.1733 30.8517 30.65 30.5217C32.2667 29.4417 32.05 26.335 30.1067 25.225C30.765 26.9667 28.79 28.695 26.87 27.1783C25.8017 26.335 23.3317 24.355 22.2283 23.5017C21.1283 22.65 19.8383 23.145 19.3283 22.7733C18.7483 22.35 19.12 21.1567 18.3283 20.7133C17.6633 20.3433 17.0117 20.55 16.24 20.3033C15.54 20.0817 15.0183 19.5567 15.1067 18.85C14.81 19.355 14.79 20.2333 15.3217 20.8267C15.8483 21.4133 16.7283 21.7767 17.0917 22.4217C17.5617 23.255 16.77 24.415 18.8617 25.9933C19.8617 26.7467 21.4117 27.985 22.4233 28.8383C24.125 30.275 23.2167 32.0717 23.44 33.6367C23.6983 35.4633 25.2267 36.4767 26.2433 36.7333C25.3667 35.9667 25.035 34.0333 26.2667 32.85C26.33 34.3767 27.475 36.7667 30.0867 37.4383C32.865 38.15 35.8183 36.635 36.4317 35.5683C35.36 36.035 33.3417 35.5317 32.51 34.7817C35.77 35.2267 38.6533 33.0517 38.6533 30.2617C38.6533 27.54 35.9117 25.4317 32.79 25.7117ZM18.6233 27.0333C17.5117 28.8667 15.1433 31.2517 12.7417 31.2517C8.32333 31.2517 6.10833 25.235 11.0633 20.3117C10.8471 20.2462 10.6226 20.2126 10.3967 20.2117C9.97167 20.2117 9.55667 20.3183 9.28333 20.5017L7.33667 21.795L7.77667 19.4083C7.82067 19.2803 7.87243 19.1551 7.93167 19.0333C6.80667 19.57 5.7 20.3367 5.285 20.775L3.36667 22.8L3.57 19.9617C3.61444 19.7395 3.65889 19.5256 3.70333 19.32C3.80333 18.8617 3.92833 18.29 3.85167 18.1C3.82266 18.0362 3.77425 17.9831 3.71333 17.9483C2.8 18.625 0.295 20.7583 0 23.8933C0 23.8933 0.485 23.235 0.906667 23.0817C1.185 22.9783 1.42833 23.11 1.16167 23.8933C1.06 24.2 -1.355 30.4933 3.395 34.8433C3.395 34.8433 2.875 33.5633 3.18833 33.1767C3.34167 32.9867 3.54167 32.9717 3.815 33.31C4.02 33.57 4.23333 33.82 4.545 34.16C4.85667 34.5 5.29 34.905 5.76 35.255C7.18167 36.2133 9.11167 36.9833 11.3083 36.9833C17.185 36.9833 20.3 33.0833 22.025 29.8083C21.9434 29.7204 21.8572 29.637 21.7667 29.5583C20.7363 28.6945 19.6894 27.8527 18.6233 27.0333ZM21.8067 22.2267C22.1533 22.3383 22.5067 22.49 22.8517 22.7583C23.2583 23.0717 23.8567 23.5433 24.4967 24.0517C25.0067 22.9683 26.1783 20.7133 27.9917 18.7117C29.625 16.9117 32.475 16.7383 33.9717 17.835C34.9333 16.9983 38.2533 16.2117 40 16.69C38.935 15.5767 36.6733 14.0833 34.1733 14.0833C32.1117 14.0833 30.9467 15.055 30.6517 14.6167C30.2717 14.0567 32.0467 13.2283 32.0467 13.2283C29.6133 13.325 27.8417 16.08 27.1033 15.7367C26.6667 15.5367 27.7617 14.2033 27.7617 14.2033C25.535 15.4467 23.67 18.0833 23.2817 19.6883C25.33 17.275 29.305 15.545 31.8917 15.91C27.51 16.1133 23.74 19.7033 21.8083 22.2267H21.8067Z" fill="currentColor"/>
</svg>
