<svg width="40" height="40" viewBox="0 0 40 40" fill="none" xmlns="http://www.w3.org/2000/svg">
<g clip-path="url(#clip0_55_102)">
<path d="M39.1858 30.3472C37.7801 30.7048 36.9107 30.3626 36.1308 29.1912C34.3797 26.5677 32.4468 24.0644 30.5817 21.515C30.3413 21.1851 30.0915 20.8614 29.7802 20.4514C27.5729 23.4294 25.3687 26.2656 23.3001 29.2158C22.5602 30.2701 21.7834 30.7295 20.4023 30.3565L28.7012 19.2183L20.9757 9.15904C22.3044 8.90008 23.223 9.03265 24.0369 10.2226C25.8342 12.8492 27.8164 15.3493 29.7925 17.9944C31.7809 15.3586 33.7385 12.8553 35.5882 10.2534C36.3312 9.19912 37.1296 8.79835 38.4645 9.18679C37.4533 10.5278 36.4637 11.8473 35.468 13.1574C34.1239 14.9239 32.8044 16.7119 31.411 18.4414C30.9147 19.058 30.9948 19.4587 31.4387 20.0414C34.016 23.4294 36.5624 26.8513 39.1858 30.3472ZM0.54587 19.0333C0.767832 17.9204 0.915807 16.7859 1.22409 15.6946C3.07378 9.08814 10.6575 6.34135 15.8674 10.4353C18.9194 12.8368 19.6778 16.2218 19.5267 20.0383H2.32465C2.0657 26.8852 6.99511 31.0193 13.2779 28.9106C15.4821 28.1707 16.78 26.4444 17.4304 24.2864C17.7603 23.2043 18.306 23.0348 19.3233 23.3431C18.8023 26.0436 17.6216 28.3002 15.1553 29.7122C11.4559 31.827 6.17509 31.1426 3.39747 28.2047C1.75741 26.4783 1.0607 24.3296 0.752418 22.0082C0.706176 21.6383 0.610609 21.2745 0.536621 20.9076C0.542787 20.2829 0.54587 19.6581 0.54587 19.0333ZM2.35548 18.574H17.9021C17.8004 13.623 14.7176 10.1055 10.5034 10.0746C5.87914 10.0376 2.55586 13.4719 2.35548 18.574Z" fill="#D9D9D9"/>
</g>
<defs>
<clipPath id="clip0_55_102">
<rect width="39.46" height="39.46" fill="white" transform="translate(0.135864)"/>
</clipPath>
</defs>
</svg>
