<svg width="41" height="40" viewBox="0 0 41 40" fill="none" xmlns="http://www.w3.org/2000/svg">
<path fill-rule="evenodd" clip-rule="evenodd" d="M14.9259 15.4831C14.3682 15.4831 13.8159 15.593 13.3007 15.8064C12.7854 16.0198 12.3173 16.3326 11.9229 16.727C11.5285 17.1214 11.2157 17.5895 11.0023 18.1048C10.7889 18.62 10.679 19.1723 10.679 19.73C10.679 20.2877 10.7889 20.84 11.0023 21.3552C11.2157 21.8705 11.5285 22.3386 11.9229 22.733C12.3173 23.1274 12.7854 23.4402 13.3007 23.6536C13.8159 23.867 14.3682 23.9769 14.9259 23.9769H19.1728V15.4831H14.9259ZM19.1728 13.0169H14.9259C13.7993 13.0169 12.7189 12.5693 11.9223 11.7727C11.1257 10.9761 10.6782 9.89572 10.6782 8.76916C10.6782 7.6426 11.1257 6.56218 11.9223 5.76558C12.7189 4.96898 13.7993 4.52145 14.9259 4.52145H19.1728V13.0169ZM21.639 4.52145V13.0169H25.8859C26.998 12.995 28.0572 12.5378 28.8359 11.7436C29.6146 10.9494 30.0509 9.88146 30.0509 8.76916C30.0509 7.65685 29.6146 6.58891 28.8359 5.79469C28.0572 5.00047 26.998 4.54333 25.8859 4.52145H21.639ZM25.8859 15.4815C24.7711 15.4813 23.701 15.9195 22.9065 16.7014C22.112 17.4833 21.6567 18.5463 21.639 19.6609V19.7974C21.6526 20.6343 21.9132 21.4485 22.3881 22.1377C22.8629 22.827 23.5309 23.3606 24.308 23.6714C25.0851 23.9823 25.9367 24.0566 26.756 23.885C27.5752 23.7135 28.3254 23.3036 28.9125 22.707C29.4995 22.1104 29.8972 21.3537 30.0555 20.5318C30.2139 19.7099 30.1258 18.8596 29.8025 18.0876C29.4791 17.3156 28.9348 16.6564 28.238 16.1927C27.5412 15.729 26.7229 15.4816 25.8859 15.4815ZM14.9259 26.4431C14.0855 26.4428 13.264 26.6917 12.5651 27.1583C11.8662 27.625 11.3214 28.2884 10.9996 29.0647C10.6778 29.841 10.5934 30.6952 10.7572 31.5195C10.9209 32.3437 11.3254 33.1009 11.9195 33.6952C12.5136 34.2896 13.2706 34.6944 14.0948 34.8584C14.919 35.0225 15.7733 34.9384 16.5497 34.6169C17.3261 34.2954 17.9897 33.7509 18.4567 33.0522C18.9236 32.3535 19.1728 31.532 19.1728 30.6917V26.4431H14.9259Z" fill="#D9D9D9"/>
</svg>
