<svg width="40" height="40" viewBox="0 0 40 40" fill="none" xmlns="http://www.w3.org/2000/svg">
<path d="M33.3479 30.7313L21.3447 37.3905C20.5226 37.8181 19.7005 37.8181 18.8783 37.3905L7.03961 30.7313L28.4973 9.10912L29.0728 8.9447C29.5661 8.9447 29.8456 9.15845 29.8949 9.6024L33.3479 30.7313ZM15.8365 9.43798L8.35503 21.8522L11.4791 2.20319C11.5285 1.75924 11.808 1.54549 12.3013 1.54549C12.6301 1.54549 12.8439 1.64414 12.959 1.95655L16.4942 8.45142L15.8365 9.43798ZM23.2357 11.5098L7.53289 27.2783L19.4538 7.05379C19.6183 6.72493 19.8649 6.57695 20.1938 6.57695C20.5226 6.57695 20.7364 6.72493 20.8515 7.05379L23.2357 11.5098Z" fill="currentColor"/>
</svg>
