<svg width="40" height="40" viewBox="0 0 40 40" fill="currentColor" xmlns="http://www.w3.org/2000/svg">
<path d="M4.27483 17.4117L13.7781 7.89199L16.5568 10.6871C16.1622 12.0846 16.8034 13.6137 18.0858 14.3536V23.4623C17.0993 24.0213 16.4417 25.09 16.4417 26.3067C16.4417 27.1788 16.7881 28.0152 17.4048 28.6319C18.0215 29.2485 18.8579 29.595 19.73 29.595C20.6021 29.595 21.4385 29.2485 22.0552 28.6319C22.6719 28.0152 23.0183 27.1788 23.0183 26.3067C23.0183 25.09 22.3607 24.0213 21.3742 23.4623V15.4716L24.7776 18.9079C24.6625 19.1545 24.6625 19.434 24.6625 19.73C24.6625 20.6021 25.0089 21.4385 25.6256 22.0552C26.2423 22.6719 27.0787 23.0183 27.9508 23.0183C28.8229 23.0183 29.6593 22.6719 30.276 22.0552C30.8927 21.4385 31.2392 20.6021 31.2392 19.73C31.2392 18.8579 30.8927 18.0215 30.276 17.4048C29.6593 16.7881 28.8229 16.4417 27.9508 16.4417C27.6549 16.4417 27.3754 16.4417 27.1287 16.5568L22.9032 12.3312C23.1074 11.5697 23.0282 10.76 22.6805 10.0524C22.3328 9.34484 21.7401 8.7875 21.0124 8.48389C20.3055 8.22083 19.5656 8.15506 18.9079 8.33592L16.1128 5.55728L17.4117 4.27483C18.6942 2.97594 20.7658 2.97594 22.0483 4.27483L35.1852 17.4117C36.4841 18.6942 36.4841 20.7658 35.1852 22.0483L22.0483 35.1852C20.7658 36.4841 18.6942 36.4841 17.4117 35.1852L4.27483 22.0483C2.97594 20.7658 2.97594 18.6942 4.27483 17.4117Z" fill="currentColor"/>
</svg>
