<svg width="40" height="40" viewBox="0 0 40 40" fill="currentColor" xmlns="http://www.w3.org/2000/svg">
<path d="M1.25 14.4875C1.25 13.2973 1.72279 12.1559 2.56436 11.3144C3.40593 10.4728 4.54734 10 5.7375 10H20.425C21.6152 10 22.7566 10.4728 23.5981 11.3144C24.4397 12.1559 24.9125 13.2973 24.9125 14.4875V19.1463C25.5913 20.9263 27.0912 22.0425 28.5862 22.7338C29.4235 23.1179 30.3034 23.4011 31.2075 23.5775L31.3663 23.605L31.4037 23.6112H31.4062L31.4375 23.615L31.47 23.6212C33.3074 23.9677 34.9899 24.8816 36.2806 26.2345C37.5713 27.5873 38.4053 29.3108 38.665 31.1625H38.7V31.45C38.7349 31.7746 38.7516 32.101 38.75 32.4275V33.5125C38.75 33.7192 38.7333 33.9217 38.7 34.12V34.2963C38.7975 34.815 38.7875 35.4038 38.5475 36.015C38.3345 36.732 37.9153 37.3706 37.3421 37.8511C36.7689 38.3317 36.067 38.633 35.3238 38.7175H35.3212C34.6799 38.7871 34.0314 38.6916 33.4372 38.4403C32.8431 38.1889 32.323 37.79 31.9263 37.2813C31.572 37.7354 31.1188 38.1028 30.6011 38.3555C30.0835 38.6081 29.5151 38.7394 28.9391 38.7392C28.3631 38.7391 27.7947 38.6076 27.2772 38.3548C26.7596 38.1019 26.3066 37.7343 25.9525 37.28C25.5979 37.7345 25.1442 38.102 24.6261 38.3546C24.1079 38.6071 23.5389 38.7381 22.9625 38.7375C22.3867 38.7383 21.8184 38.6073 21.3011 38.3547C20.7837 38.1021 20.331 37.7345 19.9775 37.28C19.6229 37.7345 19.1692 38.102 18.6511 38.3546C18.1329 38.6071 17.5639 38.7381 16.9875 38.7375C16.4117 38.7383 15.8434 38.6073 15.3261 38.3547C14.8087 38.1021 14.356 37.7345 14.0025 37.28C13.6483 37.7345 13.1952 38.1022 12.6775 38.3551C12.1598 38.608 11.5912 38.7394 11.015 38.7394C10.4388 38.7394 9.87025 38.608 9.35254 38.3551C8.83484 38.1022 8.38166 37.7345 8.0275 37.28C7.54236 37.9027 6.87483 38.3583 6.11817 38.5832C5.3615 38.8081 4.55349 38.791 3.80699 38.5344C3.0605 38.2778 2.4128 37.7944 1.95437 37.1518C1.49595 36.5091 1.24969 35.7394 1.25 34.95V14.4875ZM36.1313 31.1625C35.8839 29.904 35.2663 28.7482 34.3576 27.843C33.449 26.9379 32.2907 26.3249 31.0313 26.0825L30.9737 26.075L30.7488 26.035C29.6405 25.8204 28.562 25.4738 27.5362 25.0025C25.9 24.2463 23.9512 22.9275 22.8612 20.6938L20.2837 20.7375C19.9522 20.7431 19.632 20.6168 19.3936 20.3864C19.1552 20.156 19.0181 19.8403 19.0125 19.5088C19.0069 19.1772 19.1332 18.857 19.3636 18.6186C19.594 18.3802 19.9097 18.2431 20.2413 18.2375L22.4125 18.2012V16.675L20.2787 16.7C20.1117 16.7069 19.9449 16.6803 19.7883 16.6216C19.6318 16.563 19.4885 16.4735 19.3672 16.3585C19.2458 16.2435 19.1487 16.1054 19.0817 15.9522C19.0146 15.799 18.979 15.6339 18.9769 15.4667C18.9748 15.2995 19.0063 15.1336 19.0695 14.9788C19.1327 14.824 19.2263 14.6834 19.3447 14.5654C19.4632 14.4474 19.6041 14.3544 19.7592 14.2918C19.9143 14.2293 20.0803 14.1985 20.2475 14.2013L22.3875 14.175C22.3131 13.708 22.0747 13.2828 21.715 12.9758C21.3553 12.6688 20.8979 12.5001 20.425 12.5H14.2V14.8875C14.2 15.6931 13.88 16.4657 13.3103 17.0353C12.7407 17.605 11.9681 17.925 11.1625 17.925H3.75V31.1625H36.1313Z" fill="currentColor"/>
</svg>
