<svg width="41" height="40" viewBox="0 0 41 40" fill="none" xmlns="http://www.w3.org/2000/svg">
<path d="M26.7752 9.86499L24.4594 14.7975L25.5026 17.2613H27.9688L29.1132 14.7975L26.7752 9.86499Z" fill="#D9D9D9"/>
<path d="M18.1039 2.46625L20.5701 12.3312H23.0364L26.7752 4.9325L30.4351 12.3312H32.9014L35.3676 2.46625H18.1039ZM35.3676 24.6625H32.9014C31.6253 24.5659 30.426 24.0152 29.5211 23.1103C28.6162 22.2053 28.0655 21.0061 27.9689 19.73H25.5026C25.4082 21.0415 24.815 22.2671 23.8448 23.1547C22.8746 24.0423 21.6013 24.5245 20.2865 24.5022C18.4097 27.437 13.9298 29.7837 10.7051 30.8503C9.48345 30.3838 8.45427 29.5199 7.78323 28.3974C7.11219 27.275 6.83835 25.9594 7.00576 24.6625H5.77264C-0.0452461 34.5004 9.55093 40.9632 19.2815 34.398C24.0845 30.2079 37.4122 33.8949 35.3676 24.6625Z" fill="#D9D9D9"/>
<path d="M9.47196 22.1962C11.5151 22.1962 13.1713 20.54 13.1713 18.4969C13.1713 16.4538 11.5151 14.7975 9.47196 14.7975C7.42885 14.7975 5.77258 16.4538 5.77258 18.4969C5.77258 20.54 7.42885 22.1962 9.47196 22.1962Z" fill="#D9D9D9"/>
<path d="M34.1344 22.1962C36.1775 22.1962 37.8338 20.54 37.8338 18.4969C37.8338 16.4538 36.1775 14.7975 34.1344 14.7975C32.0913 14.7975 30.4351 16.4538 30.4351 18.4969C30.4351 20.54 32.0913 22.1962 34.1344 22.1962Z" fill="#D9D9D9"/>
<path d="M20.5701 22.1963C21.9322 22.1963 23.0364 21.0921 23.0364 19.73C23.0364 18.3679 21.9322 17.2638 20.5701 17.2638C19.2081 17.2638 18.1039 18.3679 18.1039 19.73C18.1039 21.0921 19.2081 22.1963 20.5701 22.1963Z" fill="#D9D9D9"/>
</svg>
