<svg width="41" height="40" viewBox="0 0 41 40" fill="currentColor" xmlns="http://www.w3.org/2000/svg">
<g clip-path="url(#clip0_55_122)">
<path d="M34.1799 25.9663C34.3448 25.8686 34.4827 25.7313 34.5811 25.5668C34.6753 25.3995 34.7262 25.2113 34.729 25.0193L34.7488 18.6761C34.7517 18.4841 34.8025 18.2959 34.8967 18.1286C34.9956 17.9639 35.1341 17.8265 35.2996 17.729L38.7359 15.7511C38.9035 15.658 39.0917 15.6083 39.2834 15.6064C39.4754 15.6093 39.6636 15.6602 39.8309 15.7544C39.9958 15.8521 40.1337 15.9894 40.2321 16.1539C40.3257 16.3214 40.376 16.5096 40.3784 16.7014V28.2336C40.3778 28.4264 40.3265 28.6156 40.2299 28.7823C40.1332 28.9491 39.9945 29.0876 39.8276 29.1839L26.8502 36.6386C26.6843 36.7329 26.4968 36.7824 26.306 36.7824C26.1152 36.7824 25.9276 36.7329 25.7618 36.6386L15.5778 30.815C15.4101 30.719 15.2706 30.5807 15.1733 30.4138C15.0765 30.2464 15.0255 30.0564 15.0253 29.863V24.0476C15.0264 24.0399 15.0308 24.0377 15.0385 24.041C15.0495 24.0443 15.0538 24.0415 15.0517 24.0328V24.0262C15.0517 24.0218 15.0538 24.018 15.0582 24.0147L23.4468 19.1973C23.4533 19.1923 23.4501 19.1808 23.4418 19.1808L23.4353 19.1775L23.4336 19.171L23.4501 13.4706C23.4503 13.2777 23.3999 13.088 23.3038 12.9206C23.2077 12.7533 23.0693 12.6141 22.9026 12.517C22.7357 12.4213 22.5466 12.3709 22.3542 12.3709C22.1618 12.3709 21.9728 12.4213 21.8059 12.517L15.5729 16.1112C15.4064 16.2063 15.2179 16.2564 15.0262 16.2564C14.8344 16.2564 14.646 16.2063 14.4795 16.1112L8.22508 12.5105C8.0585 12.4149 7.86975 12.3647 7.6777 12.3649C7.48564 12.3652 7.29703 12.4159 7.13072 12.512C6.96441 12.608 6.82625 12.7461 6.73005 12.9123C6.63385 13.0785 6.58299 13.2671 6.58255 13.4591V23.7631C6.58213 23.9551 6.53153 24.1437 6.43578 24.3101C6.34003 24.4765 6.20246 24.615 6.03669 24.7118C5.86988 24.8058 5.68226 24.8566 5.49083 24.8598C5.29912 24.8579 5.11092 24.8082 4.94332 24.7151L1.47248 22.7306C1.30482 22.6346 1.16533 22.4963 1.06802 22.3294C0.970919 22.1615 0.919874 21.9709 0.920044 21.777L0.951284 3.76842C0.95188 3.57661 1.00278 3.38831 1.09889 3.22231C1.195 3.05632 1.33298 2.91843 1.49903 2.82243C1.66509 2.72642 1.85343 2.67564 2.04524 2.67517C2.23705 2.6747 2.42563 2.72455 2.59216 2.81974L14.4795 9.64796C14.646 9.74313 14.8344 9.79318 15.0262 9.79318C15.2179 9.79318 15.4064 9.74313 15.5729 9.64796L27.4569 2.81974C27.6245 2.72666 27.8127 2.67692 28.0044 2.67505C28.1964 2.67793 28.3846 2.7288 28.5519 2.82302C28.717 2.92118 28.8549 3.05909 28.9531 3.2242C29.0462 3.3918 29.0959 3.58 29.0978 3.77171V21.7852C29.0978 21.9776 29.0484 22.1666 28.9514 22.3343C28.8546 22.501 28.7157 22.6393 28.5486 22.7355L22.3254 26.3198C22.1582 26.4164 22.0193 26.5554 21.9226 26.7226C21.8267 26.8897 21.7762 27.0791 21.7763 27.2718C21.7767 27.4646 21.8277 27.654 21.9243 27.8209C22.022 27.988 22.1621 28.1264 22.3304 28.2221L25.7634 30.177C25.9297 30.2687 26.1161 30.3179 26.306 30.3201C26.4973 30.3174 26.6849 30.2671 26.8518 30.1737L34.1799 25.9663ZM34.9 9.80744C34.9002 10.0008 34.9512 10.1908 35.048 10.3582C35.1462 10.5255 35.2869 10.6639 35.4558 10.7594C35.6244 10.8541 35.815 10.9027 36.0083 10.9004C36.2017 10.8981 36.391 10.845 36.5574 10.7463L39.8473 8.77326C40.008 8.67407 40.1419 8.53686 40.237 8.37373C40.3285 8.20793 40.3776 8.02213 40.38 7.8328V3.81446C40.3794 3.6209 40.3278 3.43093 40.2304 3.26366C40.1322 3.09681 39.9917 2.95881 39.8231 2.86356C39.6545 2.7683 39.4638 2.71916 39.2702 2.72109C39.0768 2.72349 38.8874 2.77679 38.7211 2.87564L35.4327 4.84864C35.2714 4.94762 35.137 5.08485 35.0414 5.24817C34.9506 5.41412 34.902 5.59991 34.9 5.7891V9.80744Z" fill="currentColor"/>
</g>
<defs>
<clipPath id="clip0_55_122">
<rect width="39.46" height="39.46" fill="white" transform="translate(0.920044)"/>
</clipPath>
</defs>
</svg>
