<svg width="40" height="40" viewBox="0 0 40 40" fill="currentColor" xmlns="http://www.w3.org/2000/svg">
<path d="M29.1667 20C28.5036 20 27.8677 19.7366 27.3989 19.2678C26.9301 18.7989 26.6667 18.163 26.6667 17.5C26.6667 16.837 26.9301 16.2011 27.3989 15.7322C27.8677 15.2634 28.5036 15 29.1667 15C29.8297 15 30.4656 15.2634 30.9344 15.7322C31.4033 16.2011 31.6667 16.837 31.6667 17.5C31.6667 18.163 31.4033 18.7989 30.9344 19.2678C30.4656 19.7366 29.8297 20 29.1667 20ZM24.1667 13.3333C23.5036 13.3333 22.8677 13.0699 22.3989 12.6011C21.9301 12.1323 21.6667 11.4964 21.6667 10.8333C21.6667 10.1703 21.9301 9.53441 22.3989 9.06557C22.8677 8.59673 23.5036 8.33333 24.1667 8.33333C24.8297 8.33333 25.4656 8.59673 25.9344 9.06557C26.4033 9.53441 26.6667 10.1703 26.6667 10.8333C26.6667 11.4964 26.4033 12.1323 25.9344 12.6011C25.4656 13.0699 24.8297 13.3333 24.1667 13.3333ZM15.8333 13.3333C15.1703 13.3333 14.5344 13.0699 14.0656 12.6011C13.5967 12.1323 13.3333 11.4964 13.3333 10.8333C13.3333 10.1703 13.5967 9.53441 14.0656 9.06557C14.5344 8.59673 15.1703 8.33333 15.8333 8.33333C16.4964 8.33333 17.1323 8.59673 17.6011 9.06557C18.0699 9.53441 18.3333 10.1703 18.3333 10.8333C18.3333 11.4964 18.0699 12.1323 17.6011 12.6011C17.1323 13.0699 16.4964 13.3333 15.8333 13.3333ZM10.8333 20C10.1703 20 9.53441 19.7366 9.06557 19.2678C8.59673 18.7989 8.33333 18.163 8.33333 17.5C8.33333 16.837 8.59673 16.2011 9.06557 15.7322C9.53441 15.2634 10.1703 15 10.8333 15C11.4964 15 12.1323 15.2634 12.6011 15.7322C13.0699 16.2011 13.3333 16.837 13.3333 17.5C13.3333 18.163 13.0699 18.7989 12.6011 19.2678C12.1323 19.7366 11.4964 20 10.8333 20ZM20 5C16.0218 5 12.2064 6.58035 9.3934 9.3934C6.58035 12.2064 5 16.0218 5 20C5 23.9782 6.58035 27.7936 9.3934 30.6066C12.2064 33.4196 16.0218 35 20 35C20.663 35 21.2989 34.7366 21.7678 34.2678C22.2366 33.7989 22.5 33.163 22.5 32.5C22.5 31.85 22.25 31.2667 21.85 30.8333C21.4667 30.3833 21.2167 29.8 21.2167 29.1667C21.2167 28.5036 21.4801 27.8677 21.9489 27.3989C22.4177 26.9301 23.0536 26.6667 23.7167 26.6667H26.6667C28.8768 26.6667 30.9964 25.7887 32.5592 24.2259C34.122 22.6631 35 20.5435 35 18.3333C35 10.9667 28.2833 5 20 5Z" fill="currentColor"/>
</svg>
