<svg width="40" height="40" viewBox="0 0 40 40" fill="currentColor" xmlns="http://www.w3.org/2000/svg">
<path d="M8.33333 35C7.41667 35 6.63222 34.6739 5.98 34.0217C5.32778 33.3694 5.00111 32.5844 5 31.6667V8.33333C5 7.41667 5.32667 6.63222 5.98 5.98C6.63333 5.32778 7.41778 5.00111 8.33333 5H31.6667C32.5833 5 33.3683 5.32667 34.0217 5.98C34.675 6.63333 35.0011 7.41778 35 8.33333V31.6667C35 32.5833 34.6739 33.3683 34.0217 34.0217C33.3694 34.675 32.5844 35.0011 31.6667 35H8.33333ZM8.33333 31.6667H13.75V24.1667H13.3333C12.8611 24.1667 12.4656 24.0067 12.1467 23.6867C11.8278 23.3667 11.6678 22.9711 11.6667 22.5V8.33333H8.33333V31.6667ZM26.25 31.6667H31.6667V8.33333H28.3333V22.5C28.3333 22.9722 28.1733 23.3683 27.8533 23.6883C27.5333 24.0083 27.1378 24.1678 26.6667 24.1667H26.25V31.6667ZM16.25 31.6667H23.75V24.1667H23.3333C22.8611 24.1667 22.4656 24.0067 22.1467 23.6867C21.8278 23.3667 21.6678 22.9711 21.6667 22.5V8.33333H18.3333V22.5C18.3333 22.9722 18.1733 23.3683 17.8533 23.6883C17.5333 24.0083 17.1378 24.1678 16.6667 24.1667H16.25V31.6667Z" fill="currentColor"/>
</svg>
