<svg width="40" height="40" viewBox="0 0 40 40" fill="none" xmlns="http://www.w3.org/2000/svg">
<path d="M19.7312 16.6235C21.4248 16.6235 22.806 18.0047 22.806 19.7312C22.806 21.3754 21.4248 22.7731 19.7312 22.7731C18.0377 22.7731 16.6565 21.3754 16.6565 19.7312C16.6565 18.0047 18.0377 16.6235 19.7312 16.6235ZM12.1183 32.8853C13.1542 33.5101 15.4233 32.5564 18.0377 30.09C17.1826 29.1199 16.3441 28.0676 15.5548 26.9659C14.2299 26.8382 12.9126 26.6406 11.6086 26.374C10.77 29.8927 11.0824 32.3098 12.1183 32.8853ZM13.2857 23.4472L12.8089 22.6086C12.628 23.0855 12.4471 23.5623 12.332 24.0227C12.776 24.1214 13.2693 24.2036 13.779 24.2858L13.2857 23.4472ZM24.0392 22.1976L25.3711 19.7312L24.0392 17.2648C23.546 16.3933 23.0198 15.6205 22.5429 14.8477C21.655 14.7983 20.7178 14.7983 19.7312 14.7983C18.7447 14.7983 17.8075 14.7983 16.9195 14.8477C16.4427 15.6205 15.9165 16.3933 15.4233 17.2648L14.0914 19.7312L15.4233 22.1976C15.9165 23.069 16.4427 23.8418 16.9195 24.6146C17.8075 24.664 18.7447 24.664 19.7312 24.664C20.7178 24.664 21.655 24.664 22.5429 24.6146C23.0198 23.8418 23.546 23.069 24.0392 22.1976ZM19.7312 11.1481C19.4188 11.5098 19.09 11.888 18.7611 12.3319H20.7014C20.3725 11.888 20.0437 11.5098 19.7312 11.1481ZM19.7312 28.3142C20.0437 27.9525 20.3725 27.5743 20.7014 27.1304H18.7611C19.09 27.5743 19.4188 27.9525 19.7312 28.3142ZM27.3278 6.577C26.3083 5.95218 24.0392 6.90586 21.4248 9.37226C22.2799 10.3424 23.1184 11.3947 23.9077 12.4964C25.256 12.6279 26.5879 12.8252 27.8539 13.0883C28.6925 9.56957 28.3801 7.1525 27.3278 6.577ZM26.1768 16.0151L26.6536 16.8537C26.8345 16.3768 27.0154 15.9 27.1305 15.4396C26.6865 15.341 26.1932 15.2587 25.6835 15.1765L26.1768 16.0151ZM28.561 4.42301C30.978 5.8042 31.2411 9.43803 30.2217 13.6802C34.3981 14.9134 37.4071 16.9523 37.4071 19.7312C37.4071 22.51 34.3981 24.5489 30.2217 25.7821C31.2411 30.0243 30.978 33.6581 28.561 35.0393C26.1603 36.4205 22.8882 34.842 19.7312 31.833C16.5743 34.842 13.3022 36.4205 10.8851 35.0393C8.48445 33.6581 8.22137 30.0243 9.24081 25.7821C5.06437 24.5489 2.05536 22.51 2.05536 19.7312C2.05536 16.9523 5.06437 14.9134 9.24081 13.6802C8.22137 9.43803 8.48445 5.8042 10.8851 4.42301C13.3022 3.04183 16.5743 4.62032 19.7312 7.62934C22.8882 4.62032 26.1603 3.04183 28.561 4.42301ZM28.0841 19.7312C28.6432 20.9644 29.1365 22.1976 29.5475 23.4472C33.0005 22.4113 34.9407 20.9315 34.9407 19.7312C34.9407 18.5308 33.0005 17.051 29.5475 16.0151C29.1365 17.2648 28.6432 18.498 28.0841 19.7312ZM11.3784 19.7312C10.8193 18.498 10.326 17.2648 9.91496 16.0151C6.462 17.051 4.52176 18.5308 4.52176 19.7312C4.52176 20.9315 6.462 22.4113 9.91496 23.4472C10.326 22.1976 10.8193 20.9644 11.3784 19.7312ZM26.1768 23.4472L25.6835 24.2858C26.1932 24.2036 26.6865 24.1214 27.1305 24.0227C27.0154 23.5623 26.8345 23.0855 26.6536 22.6086L26.1768 23.4472ZM21.4248 30.09C24.0392 32.5564 26.3083 33.5101 27.3278 32.8853C28.3801 32.3098 28.6925 29.8927 27.8539 26.374C26.5879 26.6371 25.256 26.8344 23.9077 26.9659C23.1184 28.0676 22.2799 29.1199 21.4248 30.09ZM13.2857 16.0151L13.779 15.1765C13.2693 15.2587 12.776 15.341 12.332 15.4396C12.4471 15.9 12.628 16.3768 12.8089 16.8537L13.2857 16.0151ZM18.0377 9.37226C15.4233 6.90586 13.1542 5.95218 12.1183 6.577C11.0824 7.1525 10.77 9.56957 11.6086 13.0883C12.9126 12.8217 14.2299 12.6241 15.5548 12.4964C16.3441 11.3947 17.1826 10.3424 18.0377 9.37226Z" fill="currentColor"/>
</svg>
