<svg width="40" height="40" viewBox="0 0 40 40" fill="none" xmlns="http://www.w3.org/2000/svg">
<path d="M20.1101 3.28833C22.2692 3.28833 24.4072 3.71361 26.402 4.53988C28.3968 5.36615 30.2093 6.57723 31.7361 8.10398C33.2628 9.63073 34.4739 11.4432 35.3002 13.438C36.1265 15.4328 36.5517 17.5708 36.5517 19.73C36.5517 24.0906 34.8195 28.2726 31.7361 31.356C28.6527 34.4394 24.4707 36.1717 20.1101 36.1717C17.9509 36.1717 15.8129 35.7464 13.8181 34.9201C11.8233 34.0938 10.0108 32.8828 8.48405 31.356C5.40064 28.2726 3.6684 24.0906 3.6684 19.73C3.6684 15.3694 5.40064 11.1874 8.48405 8.10398C11.5675 5.02057 15.7495 3.28833 20.1101 3.28833ZM16.8217 25.2051C17.0848 26.0929 17.0519 26.915 16.8217 27.6713C16.8217 27.7535 16.756 27.8357 16.7231 27.9508C16.6902 27.9508 16.6573 28.0659 16.608 28.1481C16.4271 28.5427 16.1641 28.9209 15.8517 29.2497C14.8981 30.302 13.5334 30.6966 12.9908 30.3678C12.366 30.006 12.7113 28.5263 13.7965 27.3589C14.9803 26.1094 16.6902 25.2873 16.6902 25.2873L16.8217 25.2051ZM30.419 10.3254C29.6791 7.39875 24.8288 6.44513 20.258 8.07285C17.5287 9.04291 14.5692 10.5555 12.4482 12.545C9.93267 14.9126 9.52163 16.9678 9.68605 17.8228C10.2451 20.848 14.4212 22.8375 16.1312 24.3008V24.3172C15.6379 24.5638 11.955 26.4218 11.0671 28.329C10.1793 30.3349 11.2316 31.7817 11.8892 31.979C14.0924 32.5709 16.312 31.5022 17.4958 29.7101C18.6468 28.0002 18.5645 25.7805 18.0549 24.6625C18.7454 24.4981 19.551 24.4159 20.5704 24.531C23.4642 24.8762 24.0232 26.6684 23.9081 27.4247C23.8094 28.181 23.2011 28.5921 23.0038 28.7236C22.8065 28.8387 22.7407 28.888 22.7572 28.9867C22.7736 29.1182 22.8723 29.1182 23.0367 29.0853C23.2833 29.036 24.5658 28.477 24.6151 27.0794C24.6808 25.3037 22.9874 23.3307 19.995 23.38C18.7618 23.4129 17.9891 23.528 17.4301 23.7418L17.2985 23.5938C15.4406 21.6208 12.0208 20.2232 12.1687 17.5597C12.2181 16.5896 12.5469 14.0576 18.7454 10.9666C23.8094 8.43457 27.8705 9.12512 28.5775 10.6871C29.5805 12.8738 26.4072 16.9678 21.1459 17.5597C19.14 17.7899 18.0713 17.0007 17.8082 16.7212C17.5287 16.4417 17.4958 16.3923 17.3972 16.4417C17.2163 16.5568 17.3314 16.8198 17.3972 16.9842C17.5452 17.3953 18.2028 18.0858 19.288 18.4804C20.258 18.7928 22.6256 18.9737 25.47 17.8721C28.6597 16.639 31.1589 13.2027 30.419 10.3254Z" fill="#D9D9D9"/>
</svg>
