<svg width="41" height="40" viewBox="0 0 41 40" fill="none" xmlns="http://www.w3.org/2000/svg">
<path fill-rule="evenodd" clip-rule="evenodd" d="M18.2361 13.7452C18.2361 12.4776 19.2719 11.9893 20.9901 11.9893C22.8184 11.9893 25.0051 12.4019 27.0176 13.1599C27.9498 13.5118 29.0267 12.8607 29.0267 11.8627V7.54343C29.032 7.21533 28.9339 6.89389 28.7462 6.62473C28.5585 6.35558 28.2908 6.15237 27.9811 6.04395C25.6463 5.25311 23.3314 4.9325 20.9901 4.9325C14.4117 4.9325 10.0366 8.38031 10.0366 14.1365C10.0366 23.1137 22.3514 21.6816 22.3514 25.552C22.3514 27.0482 21.0558 27.5349 19.2407 27.5349C17.1772 27.5349 14.6748 26.8838 12.3927 25.9071C11.472 25.5125 10.3934 26.157 10.3934 27.1567V31.5927C10.3934 32.2503 10.7814 32.8472 11.3963 33.079C14.0796 34.0901 16.7613 34.5275 19.239 34.5275C25.9801 34.5275 30.615 31.1783 30.615 25.3563C30.5821 15.664 18.2344 17.3887 18.2344 13.7452H18.2361Z" fill="#D9D9D9"/>
</svg>
