<svg width="40" height="40" viewBox="0 0 40 40" fill="none" xmlns="http://www.w3.org/2000/svg">
<path d="M14.2309 7.6129L5.7925 6.10839C5.43333 6.04171 5.06261 6.07866 4.72368 6.21493C4.38474 6.35121 4.09161 6.58116 3.87857 6.87791C3.65468 7.17859 3.52435 7.53858 3.50388 7.9129C3.48341 8.28722 3.5737 8.65927 3.76347 8.98257L18.3991 34.6003C18.5697 34.8989 18.8165 35.1468 19.1143 35.3188C19.4121 35.4909 19.7502 35.5808 20.0941 35.5794C20.438 35.5781 20.7753 35.4856 21.0718 35.3112C21.3682 35.1369 21.6131 34.887 21.7814 34.5871L36.1342 8.97271C36.9399 7.53397 35.7034 5.82064 34.092 6.11332L26.5711 7.45011L26.2324 8.68989L34.2992 7.25773C34.4444 7.23165 34.594 7.24732 34.7307 7.3029C34.8673 7.35849 34.9854 7.45171 35.0711 7.57175C35.1569 7.69178 35.2068 7.83368 35.2151 7.98097C35.2234 8.12826 35.1898 8.27488 35.118 8.40379L20.7669 34.0182C20.6879 34.1609 20.5659 34.2749 20.4182 34.344C20.2706 34.4131 20.1048 34.4338 19.9447 34.403C19.833 34.3829 19.727 34.3385 19.6343 34.2729C19.5417 34.2072 19.4646 34.1219 19.4087 34.0231L4.77141 8.40543C4.69856 8.27667 4.66386 8.12983 4.67138 7.98208C4.67889 7.83433 4.7283 7.69177 4.81383 7.57106C4.89936 7.45035 5.01748 7.35647 5.15439 7.30041C5.2913 7.24434 5.44133 7.2284 5.58697 7.25445L14.027 8.7606L14.1487 8.78197L14.2309 7.6129Z" fill="currentColor"/>
<path d="M25.0368 8.64882L25.3032 7.67377L24.3167 7.8497L25.0368 8.64882ZM15.3685 7.81682L16.2121 7.9648L15.3209 8.66691L15.3685 7.81682Z" fill="currentColor"/>
<path d="M25.7802 3.89197L15.7502 5.96375C15.6686 5.98082 15.5954 6.02555 15.543 6.09036C15.4893 6.15689 15.4577 6.23851 15.4526 6.32385L14.836 17.3158C14.8321 17.3753 14.8418 17.4349 14.8643 17.4902C14.8868 17.5454 14.9215 17.5949 14.9659 17.6348C15.0082 17.6742 15.0597 17.7024 15.1157 17.7168C15.1717 17.7312 15.2305 17.7312 15.2865 17.717L18.0785 17.0363C18.3416 16.9738 18.575 17.2171 18.5224 17.4934L17.6921 21.7783C17.6362 22.0677 17.8927 22.3144 18.1607 22.2289L19.8855 21.6764C20.1519 21.5909 20.41 21.8375 20.3525 22.1269L19.0354 28.8569C18.9532 29.2795 19.4827 29.508 19.7047 29.1479L19.8526 28.9062L28.0247 11.7006C28.1628 11.4129 27.926 11.084 27.6267 11.1448L24.7526 11.7302C24.4813 11.7861 24.2527 11.5197 24.3283 11.2419L26.2028 4.38032C26.2801 4.10079 26.0499 3.83607 25.7802 3.89197Z" fill="currentColor"/>
</svg>
